<?xml version="1.0" encoding="utf-8"?>
<!-- Generator: Adobe Illustrator 24.0.1, SVG Export Plug-In . SVG Version: 6.00 Build 0)  -->
<svg version="1.1" id="Layer_1" xmlns="http://www.w3.org/2000/svg" xmlns:xlink="http://www.w3.org/1999/xlink" x="0px" y="0px"
	 viewBox="0 0 75 60" style="enable-background:new 0 0 75 60;" xml:space="preserve">
<style type="text/css">
	.st0{fill:#E4B551;}
</style>
<g>
	<path class="st0" d="M53.67,52c-3.94,0-7.06-0.69-9.26-2.05c-2.37-1.46-3.58-3.6-3.58-6.35c0-2.18,0.85-4.92,4.53-6.49
		c-0.18-0.19-0.35-0.38-0.52-0.59c-0.76-0.96-1.14-1.95-1.14-2.96c0-1.06,0.3-2.01,0.88-2.83c0.35-0.48,0.89-1,1.63-1.55
		c-0.83-0.62-1.53-1.4-2.09-2.33c-0.89-1.46-1.34-3.25-1.34-5.3c0-3.22,1.13-5.76,3.35-7.57c2.16-1.75,5.22-2.63,9.11-2.63
		c0.5,0,1.37,0.05,2.6,0.17c1.22,0.11,2.12,0.22,2.69,0.31l9.39-0.01c0.43,0,0.77,0.34,0.77,0.77v5.54l-3.25,1.19
		c0.25,0.77,0.38,1.61,0.38,2.51c0,3.2-1.15,5.72-3.43,7.51c-2.19,1.72-5.11,2.24-9.35,2.49c-0.18,0.01-1.08,0.05-1.25,0.04
		c0.51,0.09,1.54,0.24,2.24,0.27c1.09,0.05,4.41-0.08,4.41-0.08c8.28,0,10.01,4.68,10.01,8.61c0,3.61-1.56,6.45-4.63,8.46
		C62.92,51.04,58.83,52,53.67,52z M52.61,41.12c-0.93,0-1.68,0.2-2.28,0.61c-0.65,0.44-0.65,0.79-0.65,0.94c0,0.19,0,0.58,0.8,1.03
		c0.78,0.44,1.89,0.67,3.31,0.67c2.52,0,4.54-0.31,6-0.91c0.6-0.25,1.61-0.76,1.61-1.36c0-0.14,0-0.33-0.58-0.53
		c-0.84-0.3-2.12-0.45-3.81-0.45H52.61z M55.35,18.38c-0.6,0-1.86,0-1.86,3.22c0,3.21,1.26,3.21,1.86,3.21
		c0.56,0,0.92-0.17,1.21-0.58c0.36-0.51,0.55-1.4,0.55-2.58C57.12,18.38,55.88,18.38,55.35,18.38z"/>
	<g>
		<path class="st0" d="M43.25,36.95c-0.16-0.2-0.2-0.33-0.34-0.54c-1.43-2.21-0.68-4.7,0.21-5.96c0.33-0.47,0.65-0.76,1.04-1.13
			c-0.7-0.82-1.13-1.21-1.68-2.11c-0.87-1.42-1.38-3.93-1.28-5.92c0.16-3.46,1.31-5.55,2.53-6.91c0.22-0.24,1.08-0.92,1.42-1.24
			V9.33c0-0.82-0.51-1.33-1.33-1.33h-9.62c-0.51,0-1.03,0.31-1.23,0.77l-8.24,18.22L16.48,8.77C16.27,8.31,15.76,8,15.25,8H5.62
			C4.81,8,4.29,8.51,4.29,9.33V42.5c0,0.82,0.51,1.33,1.33,1.33h9.16c0.82,0,1.33-0.51,1.33-1.33V30.73l5.22,12.29
			c0.21,0.51,0.72,0.82,1.23,0.82h4.3c0.51,0,1.02-0.31,1.23-0.82l5.22-12.29V42.5c0,0.82,0.51,1.33,1.33,1.33h4.89
			c0,0-0.02-0.29-0.01-0.43C39.73,40.59,40.19,38.77,43.25,36.95z"/>
	</g>
</g>
</svg>
