<?xml version="1.0" encoding="utf-8"?>
<!-- Generator: Adobe Illustrator 24.0.1, SVG Export Plug-In . SVG Version: 6.00 Build 0)  -->
<svg version="1.1" id="Layer_1" xmlns="http://www.w3.org/2000/svg" xmlns:xlink="http://www.w3.org/1999/xlink" x="0px" y="0px"
	 viewBox="0 0 128.02 71.9" style="enable-background:new 0 0 128.02 71.9;" xml:space="preserve">
<style type="text/css">
	.st0{fill:#E4B551;}
	.st1{fill:#353231;}
</style>
<g>
	<g>
		<path class="st0" d="M75.28,66.59c-5.89,0-10.55-1.03-13.84-3.06c-3.55-2.19-5.35-5.38-5.35-9.5c0-3.26,1.27-7.35,6.77-9.7
			c-0.27-0.28-0.53-0.57-0.78-0.89c-1.13-1.43-1.7-2.92-1.7-4.42c0-1.58,0.44-3,1.32-4.23c0.52-0.72,1.33-1.49,2.44-2.32
			c-1.24-0.93-2.28-2.09-3.12-3.47c-1.33-2.19-2-4.85-2-7.92c0-4.81,1.69-8.61,5.01-11.31c3.22-2.61,7.8-3.93,13.61-3.93
			c0.75,0,2.05,0.08,3.89,0.25c1.82,0.17,3.16,0.33,4.02,0.47l14.03-0.02c0.64,0,1.15,0.51,1.15,1.15v8.28l-4.85,1.78
			c0.37,1.15,0.56,2.41,0.56,3.75c0,4.78-1.72,8.55-5.12,11.22c-3.27,2.57-7.63,3.35-13.97,3.72c-0.26,0.02-1.62,0.07-1.86,0.06
			c0.76,0.13,2.3,0.36,3.34,0.4c1.63,0.08,6.59-0.12,6.59-0.12c12.37,0,14.96,7,14.96,12.87c0,5.39-2.33,9.64-6.92,12.63
			C89.11,65.15,82.99,66.59,75.28,66.59z M73.71,50.33c-1.39,0-2.51,0.3-3.41,0.91c-0.97,0.66-0.97,1.18-0.97,1.41
			c0,0.28,0,0.86,1.19,1.53c1.16,0.66,2.83,1,4.94,1c3.77,0,6.78-0.46,8.96-1.36c0.9-0.37,2.4-1.13,2.4-2.03c0-0.22,0-0.49-0.87-0.8
			c-1.26-0.44-3.17-0.67-5.69-0.67H73.71z M77.8,16.36c-0.9,0-2.79,0-2.79,4.81c0,4.8,1.88,4.8,2.79,4.8c0.84,0,1.38-0.26,1.81-0.87
			c0.54-0.76,0.83-2.1,0.83-3.86C80.43,16.36,78.59,16.36,77.8,16.36z"/>
		<g>
			<path class="st0" d="M59.71,44.09c-0.24-0.29-0.3-0.49-0.51-0.81c-2.14-3.31-1.02-7.02,0.32-8.91c0.5-0.71,0.98-1.14,1.55-1.69
				c-1.05-1.22-1.69-1.8-2.51-3.15c-1.3-2.13-2.06-5.87-1.92-8.85c0.24-5.16,1.96-8.3,3.78-10.32c0.33-0.36,1.62-1.37,2.12-1.86
				V2.83c0-1.22-0.77-1.99-1.99-1.99H46.18c-0.77,0-1.53,0.46-1.84,1.15L32.03,29.22L19.71,1.99c-0.31-0.69-1.07-1.15-1.84-1.15H3.5
				c-1.22,0-1.99,0.77-1.99,1.99V52.4c0,1.22,0.77,1.99,1.99,1.99h13.69c1.22,0,1.99-0.77,1.99-1.99V34.81l7.8,18.36
				c0.31,0.76,1.07,1.22,1.84,1.22h6.42c0.77,0,1.53-0.46,1.84-1.22l7.8-18.36V52.4c0,1.22,0.77,1.99,1.99,1.99h7.31
				c0,0-0.03-0.43-0.02-0.65C54.46,49.53,55.14,46.82,59.71,44.09z"/>
		</g>
	</g>
	<g>
		<path class="st1" d="M47.27,51.92c-0.09,0-0.21,0-0.31-0.06c-1.23-0.64-1.23-2.08-1.32-3.34c-0.18-2.18-0.09-4.35,0.18-6.53
			c0.09-0.86,0.25-1.69,0.4-2.51c0.15-0.77,0.89-2.88,0.4-3.46c-0.15-0.15-0.31-0.25-0.52-0.25c-1.38,0-3.83,3.68-4.32,4.32
			c-1.78,2.42-3.56,5.7-6.04,7.48c-0.46,0.34-0.86,0.46-1.16,0.46c-1.29,0-1.29-2.42-1.2-3.65c0.18-1.81,0.61-3.59,0.83-5.4
			c0.12-0.92,0.15-1.9,0.09-2.82c-0.09-0.7-0.03-1.38-0.92-1.38c-0.15,0-0.31,0.03-0.52,0.06c-0.43,0.09-0.86,0.64-1.2,0.92
			c-2.42,2.02-4.26,4.6-5.95,7.26c-1.66,2.67-3.19,5.46-4.97,8.06c-0.46,0.64-1.13,1.81-2.08,1.81c-0.12,0-0.25-0.03-0.37-0.06
			c-0.74-0.25-0.92-1.01-0.89-1.69c0.09-1.59,0.86-3.34,1.38-4.81c0.58-1.62,1.23-3.19,1.84-4.75c1.35-3.34,2.67-6.65,3.37-10.18
			c0.06-0.31,0.28-0.43,0.52-0.43c0.34,0,0.74,0.31,0.64,0.77c-0.77,3.89-2.3,7.54-3.77,11.22c-0.7,1.75-1.41,3.5-1.96,5.3
			c-0.09,0.28-0.98,2.51-0.77,2.7c0.09,0.06,0.15,0.09,0.25,0.09c0.61,0,1.41-1.53,1.59-1.84c3.16-4.84,5.64-10.33,10.12-14.16
			c0.77-0.64,2.08-1.69,3.16-1.69c0.58,0,1.1,0.31,1.44,1.1c1.19,2.97-0.31,6.93-0.61,9.9c-0.06,0.67-0.37,2.05,0.28,2.05
			c0.12,0,0.28-0.06,0.49-0.18c0.58-0.37,1.17-1.23,1.59-1.78c1.07-1.26,2.02-2.61,2.97-3.92c0.92-1.26,1.87-2.51,2.88-3.71
			c0.77-0.89,1.72-2.12,2.82-2.67c0.34-0.18,0.64-0.25,0.89-0.25c1.78,0,1.19,4.17,1.01,5.27c-0.37,1.9-0.67,3.8-0.77,5.76
			c-0.03,1.16-0.43,5.18,0.8,5.85C48.19,51.1,47.82,51.92,47.27,51.92z"/>
		<path class="st1" d="M61.95,46.07c0.46,0,0.89,0.61,0.46,1.04c-1.13,1.2-2.58,2.51-4.26,2.51c-1.62,0-2.73-1.01-2.91-2.67
			c-0.89,1.13-2.12,2.3-3.65,2.3c-0.83,0-1.59-0.37-1.78-1.29c-0.37-1.93,1.96-4.41,3.95-4.41c0.61,0,1.16,0.21,1.62,0.74
			c0.03,0.06,0.06,0.09,0.09,0.15c0.12-0.12,0.25-0.15,0.37-0.15c0.34,0,0.67,0.34,0.64,0.77c-0.21,1.44,0.06,3.31,1.66,3.31
			c1.44,0,2.48-1.13,3.4-2.12C61.68,46.13,61.83,46.07,61.95,46.07z M54.9,45.36c-0.12-0.03-0.25-0.06-0.37-0.21
			c-0.25-0.28-0.55-0.4-0.83-0.4c-0.83,0-1.69,0.92-2.08,1.47c-0.34,0.49-1.01,1.72,0,1.72C53.16,47.94,54.17,46.53,54.9,45.36z"/>
		<path class="st1" d="M73.57,47.39c-0.06,0-0.12,0-0.18-0.03c-0.09-0.03-0.18-0.03-0.28-0.03c-1.23,0-3.07,2.02-4.17,2.85
			c0.09,0.92,0.12,1.84,0.15,2.76c0,2.91-0.37,5.82-1.2,8.61c-0.86,2.85-3.83,9.5-7.51,9.5c-0.49,0-0.98-0.15-1.44-0.49
			c-1.78-1.32-1.5-4.35-1.13-6.19c1.13-5.33,5.7-11.4,9.87-14.74c-0.03-0.31-0.06-0.61-0.09-0.92c-0.18-1.32-0.25-3.13-0.77-4.35
			c-0.03-0.03-0.06-0.06-0.06-0.09c0,0.06,0,0.15-0.03,0.18c-0.18,0.28-0.34,0.55-0.49,0.8c-0.21,0.43-0.43,0.83-0.64,1.26
			c-0.74,1.35-1.75,3.43-3.34,3.99c-0.21,0.06-0.4,0.09-0.55,0.09c-0.86,0-1.07-0.92-0.83-1.84c0.49-1.84,1.66-3.43,3.07-4.66
			c0.12-0.09,0.28-0.15,0.4-0.15c0.52,0,0.95,0.61,0.46,1.01c-0.7,0.61-1.32,1.26-1.81,2.05c-0.18,0.28-1.2,1.93-0.98,2.18
			c0.03,0.03,0.06,0.03,0.09,0.03c0.49,0,2.27-2.97,2.55-3.53c0.34-0.64,1.41-2.85,2.36-2.85c0.31,0,0.61,0.25,0.86,0.8
			c0.58,1.29,0.67,3.07,0.86,4.48c0.03,0.21,0.06,0.46,0.09,0.67c1.2-0.83,3-2.64,4.48-2.64c0.15,0,0.28,0.03,0.43,0.06
			C74.4,46.37,74.21,47.39,73.57,47.39z M67.81,51.13c-0.03,0.03-0.09,0.06-0.12,0.09c-3,2.61-5.39,5.76-7.17,9.32
			c-1.07,2.21-2.64,5.82-1.38,8.25c0.4,0.77,0.86,1.07,1.38,1.07c1.96,0,4.54-4.54,5.09-5.67C67.5,60.11,68.05,55.57,67.81,51.13z"
			/>
		<path class="st1" d="M87,46.01c0.49,0,0.8,0.61,0.34,1.04c-1.04,1.01-2.73,2.12-4.11,2.12c-0.34,0-0.67-0.06-0.95-0.21
			c-1.69-0.86-1.47-2.85-2.27-2.85c-0.43,0-1.2,0.64-2.79,2.48c-0.49,0.55-1.87,2.67-2.94,2.67c-0.25,0-0.49-0.12-0.67-0.4
			c-0.43-0.58-0.21-1.75-0.15-2.45c0.15-1.62,0.46-3.16,0.12-4.72c-0.12-0.46,0.28-0.77,0.67-0.77c0.25,0,0.49,0.12,0.55,0.43
			c0.21,0.95,0.21,1.87,0.12,2.85c-0.06,0.67-0.74,3.19-0.31,3.71c-0.12-0.18,3.28-3.74,3.86-4.26c0.58-0.49,1.26-0.98,1.87-0.98
			c0.37,0,0.67,0.18,0.95,0.61c0.49,0.8,0.55,1.84,1.41,2.45c0.21,0.15,0.46,0.21,0.7,0.21c1.04,0,2.39-0.98,3.16-1.75
			C86.72,46.07,86.87,46.01,87,46.01z"/>
		<path class="st1" d="M94.54,46.13c0.46,0,0.89,0.61,0.46,1.04c-1.26,1.23-3.16,2.79-5.06,2.79c-0.49,0-0.95-0.09-1.41-0.31
			c-2.18-1.01-1.47-4.2-0.58-5.89c0.46-0.83,1.99-2.39,3.19-2.39c0.49,0,0.92,0.25,1.23,0.89c0.89,1.96-2.33,4.11-4.05,4.72
			c0,0.98,0.55,1.72,1.59,1.72c1.62,0,3.13-1.35,4.23-2.39C94.26,46.19,94.41,46.13,94.54,46.13z M88.56,45.55
			c0.67-0.31,1.56-0.98,2.02-1.56c0.12-0.18,0.67-1.16,0.4-1.32c-0.06-0.03-0.09-0.03-0.15-0.03c-0.55,0-1.44,1.1-1.62,1.41
			C88.93,44.5,88.71,45.03,88.56,45.55z"/>
		<path class="st1" d="M97.08,51.37c-0.03,0-0.06,0-0.12,0c-0.67,0-0.95-1.04-0.21-1.16c0.8-0.12,2.36-0.58,2.61-1.47
			c0.28-1.1-1.66-1.1-2.3-1.23c-0.92-0.18-2.08-0.37-2.51-1.35c-0.92-2.05,1.93-4.94,3.89-4.9c0.77,0,0.77,1.23,0,1.23
			c-1.01-0.03-2.85,1.56-2.79,2.7c0.09,1.07,1.87,1.16,2.61,1.32c0.83,0.18,2.02,0.28,2.42,1.2
			C101.52,49.59,98.49,51.16,97.08,51.37z"/>
		<path class="st1" d="M110.05,46.01c0.46,0,0.86,0.58,0.46,1.04c-1.04,1.2-3.56,3.89-5.49,3.89c-0.28,0-0.52-0.03-0.77-0.15
			c-2.12-1.01-1.2-4.6-0.83-6.35c0.06-0.31,0.28-0.43,0.52-0.43c0.37,0,0.77,0.31,0.64,0.77c-0.25,1.23-1.19,4.75,0.71,4.97
			c0.03,0,0.06,0,0.09,0c1.35,0,3.5-2.7,4.26-3.56C109.77,46.07,109.92,46.01,110.05,46.01z M104.99,41.93
			c-0.37,0-0.74-0.19-0.67-0.5c0.21-1.02,0.53-1.3,1.21-1.63c0.12-0.08,0.28-0.1,0.4-0.1c0.49,0,0.95,0.42,0.46,0.69
			c-0.55,0.32-0.69,0.38-0.9,1.25C105.42,41.85,105.2,41.93,104.99,41.93z"/>
		<path class="st1" d="M125.22,46.04c-1.81,2.15-5.85,4.75-8.8,4.75c-0.58,0-1.13-0.12-1.59-0.4c-1.04-0.64-1.07-1.78-0.89-2.91
			c-0.92,0.77-1.93,1.44-3.07,1.66c-0.12,0.03-0.28,0.03-0.4,0.03c-0.77,0-1.44-0.4-1.29-1.32c0.18-1.32,2.58-3.16,4.23-3.16
			c0.49,0,0.95,0.15,1.23,0.55c0.09-0.06,0.18-0.06,0.28-0.06c0.37,0,0.67,0.34,0.61,0.77c-0.12,0.58-0.34,1.23-0.37,1.81
			c0,1.2,0.77,1.69,1.69,1.69c1.96,0,5.03-1.9,6.47-3.19c0.46-0.43,2.48-2.33,1.9-2.97c-0.4-0.46,0-1.04,0.46-1.04
			c0.12,0,0.28,0.03,0.4,0.18C127.12,43.62,126.05,45.03,125.22,46.04z M113.72,46.1c-0.09-0.12-0.21-0.18-0.4-0.18
			c-0.74,0-2.12,1.07-2.27,1.26c-0.34,0.34-0.7,0.67-0.34,0.67C111.73,47.85,113.05,46.74,113.72,46.1z"/>
	</g>
</g>
</svg>
